<mxfile host="app.diagrams.net" agent="Mozilla/5.0 (X11; Ubuntu; Linux x86_64; rv:138.0) Gecko/20100101 Firefox/138.0" version="26.3.0">
  <diagram name="Página-1" id="tE6cN_n5X7P_r6iQFdnb">
    <mxGraphModel dx="1754" dy="876" grid="1" gridSize="10" guides="1" tooltips="1" connect="1" arrows="1" fold="1" page="1" pageScale="1" pageWidth="827" pageHeight="1169" math="0" shadow="0">
      <root>
        <mxCell id="0" />
        <mxCell id="1" parent="0" />
        <mxCell id="5x10c0gq8qYAQ5aXY2Wy-73" value="&lt;&lt;abstract&gt;&gt;&#xa;DataMiner" style="swimlane;fontStyle=1;align=center;verticalAlign=top;childLayout=stackLayout;horizontal=1;startSize=47.66666666666667;horizontalStack=0;resizeParent=1;resizeParentMax=0;resizeLast=0;collapsible=0;marginBottom=0;" vertex="1" parent="1">
          <mxGeometry x="442" y="210" width="343" height="279.6666666666667" as="geometry" />
        </mxCell>
        <mxCell id="5x10c0gq8qYAQ5aXY2Wy-74" style="line;strokeWidth=1;fillColor=none;align=left;verticalAlign=middle;spacingTop=-1;spacingLeft=3;spacingRight=3;rotatable=0;labelPosition=right;points=[];portConstraint=eastwest;strokeColor=inherit;" vertex="1" parent="5x10c0gq8qYAQ5aXY2Wy-73">
          <mxGeometry y="47.66666666666667" width="343" height="8" as="geometry" />
        </mxCell>
        <mxCell id="5x10c0gq8qYAQ5aXY2Wy-75" value="+mine(path)  : void" style="text;strokeColor=none;fillColor=none;align=left;verticalAlign=top;spacingLeft=4;spacingRight=4;overflow=hidden;rotatable=0;points=[[0,0.5],[1,0.5]];portConstraint=eastwest;" vertex="1" parent="5x10c0gq8qYAQ5aXY2Wy-73">
          <mxGeometry y="55.66666666666667" width="343" height="32" as="geometry" />
        </mxCell>
        <mxCell id="5x10c0gq8qYAQ5aXY2Wy-76" value="+openFile(path) : File" style="text;strokeColor=none;fillColor=none;align=left;verticalAlign=top;spacingLeft=4;spacingRight=4;overflow=hidden;rotatable=0;points=[[0,0.5],[1,0.5]];portConstraint=eastwest;" vertex="1" parent="5x10c0gq8qYAQ5aXY2Wy-73">
          <mxGeometry y="87.66666666666667" width="343" height="32" as="geometry" />
        </mxCell>
        <mxCell id="5x10c0gq8qYAQ5aXY2Wy-77" value="+extractData(file) : RawData " style="text;strokeColor=none;fillColor=none;align=left;verticalAlign=top;spacingLeft=4;spacingRight=4;overflow=hidden;rotatable=0;points=[[0,0.5],[1,0.5]];portConstraint=eastwest;" vertex="1" parent="5x10c0gq8qYAQ5aXY2Wy-73">
          <mxGeometry y="119.66666666666667" width="343" height="32" as="geometry" />
        </mxCell>
        <mxCell id="5x10c0gq8qYAQ5aXY2Wy-78" value="+parseData(rawData) : Data" style="text;strokeColor=none;fillColor=none;align=left;verticalAlign=top;spacingLeft=4;spacingRight=4;overflow=hidden;rotatable=0;points=[[0,0.5],[1,0.5]];portConstraint=eastwest;" vertex="1" parent="5x10c0gq8qYAQ5aXY2Wy-73">
          <mxGeometry y="151.66666666666669" width="343" height="32" as="geometry" />
        </mxCell>
        <mxCell id="5x10c0gq8qYAQ5aXY2Wy-79" value="+analyzeData(data) : Analysis " style="text;strokeColor=none;fillColor=none;align=left;verticalAlign=top;spacingLeft=4;spacingRight=4;overflow=hidden;rotatable=0;points=[[0,0.5],[1,0.5]];portConstraint=eastwest;" vertex="1" parent="5x10c0gq8qYAQ5aXY2Wy-73">
          <mxGeometry y="183.66666666666669" width="343" height="32" as="geometry" />
        </mxCell>
        <mxCell id="5x10c0gq8qYAQ5aXY2Wy-80" value="+sendReport(analysis) : void " style="text;strokeColor=none;fillColor=none;align=left;verticalAlign=top;spacingLeft=4;spacingRight=4;overflow=hidden;rotatable=0;points=[[0,0.5],[1,0.5]];portConstraint=eastwest;" vertex="1" parent="5x10c0gq8qYAQ5aXY2Wy-73">
          <mxGeometry y="215.66666666666669" width="343" height="32" as="geometry" />
        </mxCell>
        <mxCell id="5x10c0gq8qYAQ5aXY2Wy-81" value="+closeFile(file) : void" style="text;strokeColor=none;fillColor=none;align=left;verticalAlign=top;spacingLeft=4;spacingRight=4;overflow=hidden;rotatable=0;points=[[0,0.5],[1,0.5]];portConstraint=eastwest;" vertex="1" parent="5x10c0gq8qYAQ5aXY2Wy-73">
          <mxGeometry y="247.66666666666669" width="343" height="32" as="geometry" />
        </mxCell>
        <mxCell id="5x10c0gq8qYAQ5aXY2Wy-82" value="PDFDataMiner" style="swimlane;fontStyle=1;align=center;verticalAlign=top;childLayout=stackLayout;horizontal=1;startSize=34.54545454545455;horizontalStack=0;resizeParent=1;resizeParentMax=0;resizeLast=0;collapsible=0;marginBottom=0;" vertex="1" parent="1">
          <mxGeometry x="130" y="554" width="289" height="182.54545454545456" as="geometry" />
        </mxCell>
        <mxCell id="5x10c0gq8qYAQ5aXY2Wy-83" style="line;strokeWidth=1;fillColor=none;align=left;verticalAlign=middle;spacingTop=-1;spacingLeft=3;spacingRight=3;rotatable=0;labelPosition=right;points=[];portConstraint=eastwest;strokeColor=inherit;" vertex="1" parent="5x10c0gq8qYAQ5aXY2Wy-82">
          <mxGeometry y="34.54545454545455" width="289" height="8" as="geometry" />
        </mxCell>
        <mxCell id="5x10c0gq8qYAQ5aXY2Wy-84" value="+openFile(path) : File" style="text;strokeColor=none;fillColor=none;align=left;verticalAlign=top;spacingLeft=4;spacingRight=4;overflow=hidden;rotatable=0;points=[[0,0.5],[1,0.5]];portConstraint=eastwest;" vertex="1" parent="5x10c0gq8qYAQ5aXY2Wy-82">
          <mxGeometry y="42.54545454545455" width="289" height="35" as="geometry" />
        </mxCell>
        <mxCell id="5x10c0gq8qYAQ5aXY2Wy-85" value="+extractData(file) : RawData" style="text;strokeColor=none;fillColor=none;align=left;verticalAlign=top;spacingLeft=4;spacingRight=4;overflow=hidden;rotatable=0;points=[[0,0.5],[1,0.5]];portConstraint=eastwest;" vertex="1" parent="5x10c0gq8qYAQ5aXY2Wy-82">
          <mxGeometry y="77.54545454545455" width="289" height="35" as="geometry" />
        </mxCell>
        <mxCell id="5x10c0gq8qYAQ5aXY2Wy-86" value="+parseData(rawData) : Data" style="text;strokeColor=none;fillColor=none;align=left;verticalAlign=top;spacingLeft=4;spacingRight=4;overflow=hidden;rotatable=0;points=[[0,0.5],[1,0.5]];portConstraint=eastwest;" vertex="1" parent="5x10c0gq8qYAQ5aXY2Wy-82">
          <mxGeometry y="112.54545454545455" width="289" height="35" as="geometry" />
        </mxCell>
        <mxCell id="5x10c0gq8qYAQ5aXY2Wy-87" value="+closeFile(file) : void" style="text;strokeColor=none;fillColor=none;align=left;verticalAlign=top;spacingLeft=4;spacingRight=4;overflow=hidden;rotatable=0;points=[[0,0.5],[1,0.5]];portConstraint=eastwest;" vertex="1" parent="5x10c0gq8qYAQ5aXY2Wy-82">
          <mxGeometry y="147.54545454545456" width="289" height="35" as="geometry" />
        </mxCell>
        <mxCell id="5x10c0gq8qYAQ5aXY2Wy-88" value="CSVDataMiner" style="swimlane;fontStyle=1;align=center;verticalAlign=top;childLayout=stackLayout;horizontal=1;startSize=34.54545454545455;horizontalStack=0;resizeParent=1;resizeParentMax=0;resizeLast=0;collapsible=0;marginBottom=0;" vertex="1" parent="1">
          <mxGeometry x="469" y="554" width="289" height="182.54545454545456" as="geometry" />
        </mxCell>
        <mxCell id="5x10c0gq8qYAQ5aXY2Wy-89" style="line;strokeWidth=1;fillColor=none;align=left;verticalAlign=middle;spacingTop=-1;spacingLeft=3;spacingRight=3;rotatable=0;labelPosition=right;points=[];portConstraint=eastwest;strokeColor=inherit;" vertex="1" parent="5x10c0gq8qYAQ5aXY2Wy-88">
          <mxGeometry y="34.54545454545455" width="289" height="8" as="geometry" />
        </mxCell>
        <mxCell id="5x10c0gq8qYAQ5aXY2Wy-90" value="+openFile(path) : File" style="text;strokeColor=none;fillColor=none;align=left;verticalAlign=top;spacingLeft=4;spacingRight=4;overflow=hidden;rotatable=0;points=[[0,0.5],[1,0.5]];portConstraint=eastwest;" vertex="1" parent="5x10c0gq8qYAQ5aXY2Wy-88">
          <mxGeometry y="42.54545454545455" width="289" height="35" as="geometry" />
        </mxCell>
        <mxCell id="5x10c0gq8qYAQ5aXY2Wy-91" value="+extractData(file) : RawData" style="text;strokeColor=none;fillColor=none;align=left;verticalAlign=top;spacingLeft=4;spacingRight=4;overflow=hidden;rotatable=0;points=[[0,0.5],[1,0.5]];portConstraint=eastwest;" vertex="1" parent="5x10c0gq8qYAQ5aXY2Wy-88">
          <mxGeometry y="77.54545454545455" width="289" height="35" as="geometry" />
        </mxCell>
        <mxCell id="5x10c0gq8qYAQ5aXY2Wy-92" value="+parseData(rawData) : Data" style="text;strokeColor=none;fillColor=none;align=left;verticalAlign=top;spacingLeft=4;spacingRight=4;overflow=hidden;rotatable=0;points=[[0,0.5],[1,0.5]];portConstraint=eastwest;" vertex="1" parent="5x10c0gq8qYAQ5aXY2Wy-88">
          <mxGeometry y="112.54545454545455" width="289" height="35" as="geometry" />
        </mxCell>
        <mxCell id="5x10c0gq8qYAQ5aXY2Wy-93" value="+closeFile(file) : void" style="text;strokeColor=none;fillColor=none;align=left;verticalAlign=top;spacingLeft=4;spacingRight=4;overflow=hidden;rotatable=0;points=[[0,0.5],[1,0.5]];portConstraint=eastwest;" vertex="1" parent="5x10c0gq8qYAQ5aXY2Wy-88">
          <mxGeometry y="147.54545454545456" width="289" height="35" as="geometry" />
        </mxCell>
        <mxCell id="5x10c0gq8qYAQ5aXY2Wy-94" value="DocDataMiner" style="swimlane;fontStyle=1;align=center;verticalAlign=top;childLayout=stackLayout;horizontal=1;startSize=34.54545454545455;horizontalStack=0;resizeParent=1;resizeParentMax=0;resizeLast=0;collapsible=0;marginBottom=0;" vertex="1" parent="1">
          <mxGeometry x="809" y="554" width="288" height="182.54545454545456" as="geometry" />
        </mxCell>
        <mxCell id="5x10c0gq8qYAQ5aXY2Wy-95" style="line;strokeWidth=1;fillColor=none;align=left;verticalAlign=middle;spacingTop=-1;spacingLeft=3;spacingRight=3;rotatable=0;labelPosition=right;points=[];portConstraint=eastwest;strokeColor=inherit;" vertex="1" parent="5x10c0gq8qYAQ5aXY2Wy-94">
          <mxGeometry y="34.54545454545455" width="288" height="8" as="geometry" />
        </mxCell>
        <mxCell id="5x10c0gq8qYAQ5aXY2Wy-96" value="+openFile(path) : File" style="text;strokeColor=none;fillColor=none;align=left;verticalAlign=top;spacingLeft=4;spacingRight=4;overflow=hidden;rotatable=0;points=[[0,0.5],[1,0.5]];portConstraint=eastwest;" vertex="1" parent="5x10c0gq8qYAQ5aXY2Wy-94">
          <mxGeometry y="42.54545454545455" width="288" height="35" as="geometry" />
        </mxCell>
        <mxCell id="5x10c0gq8qYAQ5aXY2Wy-97" value="+extractData(file) : RawData" style="text;strokeColor=none;fillColor=none;align=left;verticalAlign=top;spacingLeft=4;spacingRight=4;overflow=hidden;rotatable=0;points=[[0,0.5],[1,0.5]];portConstraint=eastwest;" vertex="1" parent="5x10c0gq8qYAQ5aXY2Wy-94">
          <mxGeometry y="77.54545454545455" width="288" height="35" as="geometry" />
        </mxCell>
        <mxCell id="5x10c0gq8qYAQ5aXY2Wy-98" value="+parseData(rawData) : Data" style="text;strokeColor=none;fillColor=none;align=left;verticalAlign=top;spacingLeft=4;spacingRight=4;overflow=hidden;rotatable=0;points=[[0,0.5],[1,0.5]];portConstraint=eastwest;" vertex="1" parent="5x10c0gq8qYAQ5aXY2Wy-94">
          <mxGeometry y="112.54545454545455" width="288" height="35" as="geometry" />
        </mxCell>
        <mxCell id="5x10c0gq8qYAQ5aXY2Wy-99" value="+closeFile(file) : void" style="text;strokeColor=none;fillColor=none;align=left;verticalAlign=top;spacingLeft=4;spacingRight=4;overflow=hidden;rotatable=0;points=[[0,0.5],[1,0.5]];portConstraint=eastwest;" vertex="1" parent="5x10c0gq8qYAQ5aXY2Wy-94">
          <mxGeometry y="147.54545454545456" width="288" height="35" as="geometry" />
        </mxCell>
        <mxCell id="5x10c0gq8qYAQ5aXY2Wy-100" value="" style="curved=1;startArrow=block;startSize=16;startFill=0;endArrow=none;exitX=0;exitY=0.8;entryX=0.5;entryY=0;rounded=0;" edge="1" parent="1" source="5x10c0gq8qYAQ5aXY2Wy-73" target="5x10c0gq8qYAQ5aXY2Wy-82">
          <mxGeometry relative="1" as="geometry">
            <Array as="points">
              <mxPoint x="275" y="529" />
            </Array>
          </mxGeometry>
        </mxCell>
        <mxCell id="5x10c0gq8qYAQ5aXY2Wy-101" value="" style="curved=1;startArrow=block;startSize=16;startFill=0;endArrow=none;exitX=0.5;exitY=1;entryX=0.5;entryY=0;rounded=0;" edge="1" parent="1" source="5x10c0gq8qYAQ5aXY2Wy-73" target="5x10c0gq8qYAQ5aXY2Wy-88">
          <mxGeometry relative="1" as="geometry">
            <Array as="points" />
          </mxGeometry>
        </mxCell>
        <mxCell id="5x10c0gq8qYAQ5aXY2Wy-102" value="" style="curved=1;startArrow=block;startSize=16;startFill=0;endArrow=none;exitX=1;exitY=0.8;entryX=0.5;entryY=0;rounded=0;" edge="1" parent="1" source="5x10c0gq8qYAQ5aXY2Wy-73" target="5x10c0gq8qYAQ5aXY2Wy-94">
          <mxGeometry relative="1" as="geometry">
            <Array as="points">
              <mxPoint x="953" y="529" />
            </Array>
          </mxGeometry>
        </mxCell>
        <mxCell id="5x10c0gq8qYAQ5aXY2Wy-103" value="Client" style="swimlane;fontStyle=1;align=center;verticalAlign=top;childLayout=stackLayout;horizontal=1;startSize=47.2;horizontalStack=0;resizeParent=1;resizeParentMax=0;resizeLast=0;collapsible=0;marginBottom=0;" vertex="1" parent="1">
          <mxGeometry x="563" y="11" width="101" height="102.2" as="geometry" />
        </mxCell>
        <mxCell id="5x10c0gq8qYAQ5aXY2Wy-104" style="line;strokeWidth=1;fillColor=none;align=left;verticalAlign=middle;spacingTop=-1;spacingLeft=3;spacingRight=3;rotatable=0;labelPosition=right;points=[];portConstraint=eastwest;strokeColor=inherit;" vertex="1" parent="5x10c0gq8qYAQ5aXY2Wy-103">
          <mxGeometry y="47.2" width="101" height="8" as="geometry" />
        </mxCell>
        <mxCell id="5x10c0gq8qYAQ5aXY2Wy-105" value="+main()" style="text;strokeColor=none;fillColor=none;align=left;verticalAlign=top;spacingLeft=4;spacingRight=4;overflow=hidden;rotatable=0;points=[[0,0.5],[1,0.5]];portConstraint=eastwest;" vertex="1" parent="5x10c0gq8qYAQ5aXY2Wy-103">
          <mxGeometry y="55.2" width="101" height="47" as="geometry" />
        </mxCell>
        <mxCell id="5x10c0gq8qYAQ5aXY2Wy-133" value="" style="curved=1;startArrow=none;endArrow=open;endSize=12;exitX=0.5;exitY=1;entryX=0.5;entryY=0;rounded=0;" edge="1" parent="1" source="5x10c0gq8qYAQ5aXY2Wy-103">
          <mxGeometry relative="1" as="geometry">
            <Array as="points" />
            <mxPoint x="613.5" y="210" as="targetPoint" />
          </mxGeometry>
        </mxCell>
      </root>
    </mxGraphModel>
  </diagram>
</mxfile>
